<?xml version="1.0" encoding="utf-8"?><svg viewBox="0 0 880 880" xmlns="http://www.w3.org/2000/svg" xmlns:xlink="http://www.w3.org/1999/xlink"><style>:root>svg{display:none}:root>svg:target{display:block}</style><svg viewBox="0 0 880 880" id="1699858445turkey-bird-cartoon-style_(1)" xmlns="http://www.w3.org/2000/svg"><defs><clipPath clipPathUnits="userSpaceOnUse" id="aa"><path d="M0 660h660V0H0z"/></clipPath></defs><g clip-path="url(#aa)" transform="matrix(1.33333 0 0 -1.33333 0 880)" fill-rule="evenodd"><path d="M342.174 72.66c92.564 0 168.062 8.57 168.062 19.08 0 10.506-75.498 19.075-168.062 19.075-92.565 0-168.063-8.569-168.063-19.076 0-10.509 75.498-19.079 168.063-19.079" fill="#adda1a"/><path d="M451.875 420.937c-18.878 6.307-51.594-40.71-73.071-105.013-21.479-64.301-23.585-121.541-4.707-127.847 18.879-6.306 51.594 40.71 73.072 105.012 21.477 64.303 23.585 121.542 4.706 127.848" fill="#da8a38"/><path d="M409.746 384.777c-11.058-18.195-21.979-42.016-30.942-68.853a417.041 417.041 0 0 1-4.74-15.129c11.902 2.4 24.572 1.813 36.911-2.308 12.341-4.122 22.82-11.269 30.888-20.338a418.498 418.498 0 0 1 5.306 14.94c8.963 26.838 14.551 52.441 16.65 73.628a156.734 156.734 0 0 1-26.21 11.504 156.682 156.682 0 0 1-27.863 6.556" fill="#7e2b1a"/><path d="M369.374 283.281c-12.145-50.009-10.876-89.994 4.723-95.205 15.599-5.21 40.643 25.986 60.992 73.256a55.971 55.971 0 0 1-29.075 22.303 55.97 55.97 0 0 1-36.64-.354" fill="#b0641d"/><path d="M536.743 360.452c-14.655 11.152-57.334-20.27-95.324-70.188-37.992-49.918-56.909-99.427-42.255-110.58 14.655-11.155 57.333 20.27 95.326 70.187 37.99 49.917 56.91 99.427 42.253 110.581" fill="#da8a38"/><path d="M489.056 341.346c-15.111-12.642-31.782-30.25-47.637-51.082a387.463 387.463 0 0 1-8.663-11.84c11.138-1.447 22.06-5.74 31.642-13.03 9.58-7.291 16.627-16.676 20.99-27.026a389.077 389.077 0 0 1 9.102 11.503c15.856 20.833 28.386 41.595 36.544 59.526a145.283 145.283 0 0 1-19.528 17.895 145.046 145.046 0 0 1-22.45 14.054" fill="#7e2b1a"/><path d="M423.423 264.484c-25.555-40.183-36.367-75.586-24.26-84.8 12.11-9.218 43.352 10.638 75.273 45.974a51.784 51.784 0 0 1-18.814 28.207 51.795 51.795 0 0 1-32.2 10.62" fill="#b0641d"/><path d="M572.517 271.01c-8.861 13.194-52.477-.577-97.417-30.762-44.941-30.181-74.19-65.347-65.327-78.541 8.86-13.193 52.476.579 97.417 30.763 44.94 30.182 74.188 65.348 65.327 78.54" fill="#da8a38"/><path d="M528.243 268.695c-15.864-6.114-34.388-15.85-53.144-28.447a332.863 332.863 0 0 1-10.375-7.254c8.696-4.286 16.42-10.836 22.213-19.46 5.791-8.626 8.932-18.254 9.611-27.924a332.146 332.146 0 0 1 10.641 6.86c18.756 12.595 34.775 26.061 46.435 38.433a125.15 125.15 0 0 1-10.962 20.058 125.226 125.226 0 0 1-14.419 17.734" fill="#7e2b1a"/><path d="M453.217 224.209c-32.07-25.698-50.767-51.601-43.444-62.502 7.322-10.901 38.37-3.392 74.29 16.573a44.685 44.685 0 0 1-7.505 28.281 44.69 44.69 0 0 1-23.341 17.648" fill="#b0641d"/><path d="M232.47 420.937c18.878 6.307 51.595-40.71 73.072-105.013 21.479-64.301 23.585-121.541 4.706-127.847-18.878-6.306-51.593 40.71-73.071 105.011-21.478 64.303-23.585 121.542-4.706 127.848" fill="#da8a38"/><path d="M274.6 384.777c11.057-18.195 21.978-42.016 30.942-68.853a417.041 417.041 0 0 0 4.74-15.129c-11.901 2.4-24.572 1.813-36.912-2.308-12.34-4.122-22.818-11.269-30.888-20.338a420.482 420.482 0 0 0-5.305 14.94c-8.964 26.838-14.551 52.441-16.65 73.628a156.734 156.734 0 0 0 26.21 11.504 156.702 156.702 0 0 0 27.863 6.556" fill="#7e2b1a"/><path d="M314.97 283.281c12.149-50.009 10.878-89.994-4.722-95.205-15.598-5.21-40.642 25.986-60.991 73.256a55.971 55.971 0 0 0 29.075 22.303 55.966 55.966 0 0 0 36.639-.354" fill="#b0641d"/><path d="M147.602 360.452c14.655 11.152 57.333-20.27 95.326-70.188 37.99-49.918 56.907-99.427 42.253-110.58-14.655-11.155-57.335 20.27-95.326 70.187-37.99 49.917-56.908 99.427-42.253 110.581" fill="#da8a38"/><path d="M195.29 341.346c15.109-12.642 31.782-30.25 47.639-51.082a389.058 389.058 0 0 0 8.661-11.84c-11.14-1.447-22.061-5.74-31.642-13.03-9.578-7.291-16.627-16.676-20.99-27.026a390.753 390.753 0 0 0-9.103 11.503c-15.856 20.833-28.385 41.595-36.542 59.526a145.214 145.214 0 0 0 19.527 17.895 144.951 144.951 0 0 0 22.45 14.054" fill="#7e2b1a"/><path d="M260.923 264.484c25.555-40.183 36.367-75.586 24.259-84.8-12.11-9.218-43.351 10.638-75.274 45.974a51.798 51.798 0 0 0 18.816 28.207 51.793 51.793 0 0 0 32.199 10.62" fill="#b0641d"/><path d="M111.83 271.01c8.861 13.194 52.476-.577 97.416-30.762 44.941-30.181 74.19-65.347 65.327-78.541-8.86-13.193-52.475.579-97.417 30.763-44.94 30.182-74.188 65.348-65.326 78.54" fill="#da8a38"/><path d="M156.102 268.695c15.865-6.114 34.39-15.85 53.144-28.447a335.257 335.257 0 0 0 10.375-7.254c-8.696-4.286-16.42-10.836-22.213-19.46-5.79-8.626-8.931-18.254-9.61-27.924a333.268 333.268 0 0 0-10.641 6.86c-18.756 12.595-34.776 26.061-46.436 38.433a125.235 125.235 0 0 0 10.963 20.058 125.295 125.295 0 0 0 14.419 17.734" fill="#7e2b1a"/><path d="M231.129 224.209c32.068-25.698 50.767-51.601 43.444-62.502-7.322-10.901-38.372-3.392-74.29 16.573a44.698 44.698 0 0 0 7.505 28.281 44.694 44.694 0 0 0 23.34 17.648" fill="#b0641d"/><path d="M342.792 193.368c19.851 0 36.039 55.143 36.039 122.753s-16.188 122.754-36.039 122.754c-19.849 0-36.039-55.145-36.039-122.754 0-67.61 16.19-122.753 36.039-122.753" fill="#da8a38"/><path d="M371.297 391.23c4.723-20.76 7.534-46.815 7.534-75.109 0-5.37-.101-10.661-.298-15.85-10.528 6.046-22.73 9.504-35.741 9.504-13.012 0-25.213-3.458-35.74-9.504a420.22 420.22 0 0 0-.3 15.85c0 28.295 2.814 54.35 7.536 75.11a156.637 156.637 0 0 0 28.504 2.608c9.738 0 19.262-.9 28.505-2.608" fill="#7e2b1a"/><path d="M377.435 282.173c-4.325-51.281-18.196-88.805-34.643-88.805-16.444 0-30.316 37.524-34.641 88.805a55.97 55.97 0 0 0 34.64 11.942 55.968 55.968 0 0 0 34.644-11.942" fill="#b0641d"/><path d="M342.792 253.67c74.32 0 134.568-56.68 134.568-107.558 0-50.877-60.248-55.467-134.568-55.467-74.319 0-134.567 4.59-134.567 55.467 0 50.879 60.248 107.559 134.567 107.559" fill="#7e2b1a"/><path d="M404.622 240.054c43.21-19.868 72.738-58.323 72.738-93.941 0-50.878-60.248-55.468-134.568-55.468-53.208 0-99.197 2.357-121.034 22.362a160.6 160.6 0 0 1 6.698-1.45c59.403-10.918 192.735-12.71 200 70.403 1.826 20.886-9.073 41.326-23.834 58.094" fill="#5c2214"/><path d="M316.176 495.088h51.994c-22.63-29.061-16.385-287.32 0-306.73 15.247-18.065-64.116-19.676-51.995 0 19.307 31.34 22.629 277.669 0 306.73m42.899 86.845c5.49 3.552 8.964 10.093 8.964 21.657 0 21.113-11.58 50.972-25.865 50.972-14.285 0-25.866-29.86-25.866-50.972 0-11.564 3.475-18.105 8.964-21.657 7.966-5.155 10.41-10.41 16.902-10.41 6.492 0 8.933 5.255 16.901 10.41" fill="#f68294"/><path d="M328.879 589.477c9.723 3.457 9.129 8.898 9.667 20.276.26 6.179.12 11.842.483 18.15.15 2.503.593 14.933-.29 16.509-1.056 1.884-4.676.256-5.968-.874-2.384-2.09-4.746-5.868-6.347-8.958-4.54-9.294-10.102-31.01-5.071-41.206 1.806-3.66 4.366-4.412 7.526-3.897" fill="#f8a0af"/><path d="M414.24 544.838c-26.06 0-58.942-15.222-58.942-34 0-18.78 32.881-34.002 58.942-34.002 26.064 0 40.477 15.223 40.477 34.002 0 18.778-14.413 34-40.477 34m-144.136 0c26.062 0 58.943-15.222 58.943-34 0-18.78-32.88-34.002-58.943-34.002-26.06 0-40.474 15.223-40.474 34.002 0 18.778 14.413 34 40.474 34" fill="#f68294"/><path d="M276.537 544.545c24.73-2.19 52.51-16.447 52.51-33.707 0-18.78-32.88-34.002-58.943-34.002-7.528 0-14.082 1.274-19.599 3.53 3.53-.798 7.242-1.172 11.794-.76 13.963 1.262 33.846 5.548 42.963 16.986 15.86 19.895-10.66 28.12-23.532 36.893-3.469 2.632-6.172 7.032-5.193 11.06m161.441-5.219c16.16-34.856-9.21-60.673-63.163-52.43 11.504-6.213 26.325-10.06 39.425-10.06 26.063 0 40.476 15.222 40.476 34.002 0 11.927-5.816 22.418-16.738 28.488" fill="#f46f82"/><path d="M303.882 525.052c22.19 0 40.285 18.098 40.285 40.285 0 22.19-18.095 40.287-40.285 40.287-22.187 0-40.286-18.097-40.286-40.287 0-22.187 18.099-40.285 40.286-40.285" fill="#edf6f8"/><path d="M311.837 532.246c15.014 0 27.259 12.246 27.259 27.26 0 15.013-12.245 27.258-27.26 27.258-15.013 0-27.26-12.245-27.26-27.258 0-15.014 12.247-27.26 27.26-27.26" fill="#fff"/><path d="M311.837 550.898c4.74 0 8.608 3.868 8.608 8.608s-3.868 8.607-8.608 8.607c-4.741 0-8.608-3.867-8.608-8.608 0-4.74 3.867-8.608 8.608-8.608" fill="#3f3f40"/><path d="M317.527 559.074a4.2 4.2 0 0 1 4.193 4.193 4.203 4.203 0 0 1-4.193 4.194 4.203 4.203 0 0 1-4.193-4.194 4.2 4.2 0 0 1 4.193-4.193" fill="#fff"/><path d="M380.464 525.052c22.187 0 40.286 18.098 40.286 40.285 0 22.19-18.1 40.287-40.286 40.287-22.187 0-40.286-18.097-40.286-40.287 0-22.187 18.099-40.285 40.286-40.285" fill="#edf6f8"/><path d="M372.509 532.246c15.016 0 27.26 12.246 27.26 27.26 0 15.013-12.244 27.258-27.26 27.258-15.014 0-27.26-12.245-27.26-27.258 0-15.014 12.246-27.26 27.26-27.26" fill="#fff"/><path d="M372.509 550.898c4.742 0 8.608 3.868 8.608 8.608s-3.866 8.607-8.608 8.607c-4.74 0-8.605-3.867-8.605-8.608 0-4.74 3.865-8.608 8.605-8.608" fill="#3f3f40"/><path d="M378.201 559.074a4.2 4.2 0 0 1 4.193 4.193 4.203 4.203 0 0 1-4.193 4.194 4.203 4.203 0 0 1-4.193-4.194 4.2 4.2 0 0 1 4.193-4.193" fill="#fff"/><path d="M359.074 538.102c5.49-3.552 8.964-10.093 8.964-21.655 0-21.115-11.58-50.973-25.865-50.973-14.285 0-25.866 29.858-25.866 50.973 0 11.562 3.475 18.103 8.964 21.655 7.966 5.157 10.41 10.409 16.902 10.409 6.492 0 8.933-5.252 16.901-10.41" fill="#db5b1d"/><path d="M328.879 530.56c9.723-3.46 9.129-8.9 9.667-20.276.26-6.18.12-11.844.483-18.152.15-2.503.593-14.931-.29-16.507-1.056-1.886-4.676-.256-5.968.873-2.384 2.089-4.746 5.867-6.347 8.958-4.54 9.293-10.102 31.008-5.071 41.205 1.806 3.659 4.366 4.412 7.526 3.899" fill="#ed6827"/></g></svg></svg>